<?xml version="1.0" encoding="utf-8" standalone="no"?>
<!DOCTYPE svg PUBLIC "-//W3C//DTD SVG 1.1//EN"
  "http://www.w3.org/Graphics/SVG/1.1/DTD/svg11.dtd">
<svg xmlns:xlink="http://www.w3.org/1999/xlink" width="460.8pt" height="345.6pt" viewBox="0 0 460.8 345.6" xmlns="http://www.w3.org/2000/svg" version="1.1">
 <metadata>
  <rdf:RDF xmlns:dc="http://purl.org/dc/elements/1.1/" xmlns:cc="http://creativecommons.org/ns#" xmlns:rdf="http://www.w3.org/1999/02/22-rdf-syntax-ns#">
   <cc:Work>
    <dc:type rdf:resource="http://purl.org/dc/dcmitype/StillImage"/>
    <dc:date>2025-06-16T16:42:12.385807</dc:date>
    <dc:format>image/svg+xml</dc:format>
    <dc:creator>
     <cc:Agent>
      <dc:title>Matplotlib v3.8.2, https://matplotlib.org/</dc:title>
     </cc:Agent>
    </dc:creator>
   </cc:Work>
  </rdf:RDF>
 </metadata>
 <defs>
  <style type="text/css">*{stroke-linejoin: round; stroke-linecap: butt}</style>
 </defs>
 <g id="figure_1">
  <g id="patch_1">
   <path d="M 0 345.6 
L 460.8 345.6 
L 460.8 0 
L 0 0 
z
" style="fill: #ffffff"/>
  </g>
  <g id="axes_1">
   <g id="patch_2">
    <path d="M 57.6 119.740235 
L 414.72 119.740235 
L 414.72 41.472 
L 57.6 41.472 
z
" style="fill: #ffffff"/>
   </g>
   <g id="matplotlib.axis_1">
    <g id="xtick_1">
     <g id="line2d_1">
      <defs>
       <path id="mf3a84b3c87" d="M 0 0 
L 0 3.5 
" style="stroke: #000000; stroke-width: 0.8"/>
      </defs>
      <g>
       <use xlink:href="#mf3a84b3c87" x="73.832727" y="119.740235" style="stroke: #000000; stroke-width: 0.8"/>
      </g>
     </g>
    </g>
    <g id="xtick_2">
     <g id="line2d_2">
      <g>
       <use xlink:href="#mf3a84b3c87" x="114.414545" y="119.740235" style="stroke: #000000; stroke-width: 0.8"/>
      </g>
     </g>
    </g>
    <g id="xtick_3">
     <g id="line2d_3">
      <g>
       <use xlink:href="#mf3a84b3c87" x="154.996364" y="119.740235" style="stroke: #000000; stroke-width: 0.8"/>
      </g>
     </g>
    </g>
    <g id="xtick_4">
     <g id="line2d_4">
      <g>
       <use xlink:href="#mf3a84b3c87" x="195.578182" y="119.740235" style="stroke: #000000; stroke-width: 0.8"/>
      </g>
     </g>
    </g>
    <g id="xtick_5">
     <g id="line2d_5">
      <g>
       <use xlink:href="#mf3a84b3c87" x="236.16" y="119.740235" style="stroke: #000000; stroke-width: 0.8"/>
      </g>
     </g>
    </g>
    <g id="xtick_6">
     <g id="line2d_6">
      <g>
       <use xlink:href="#mf3a84b3c87" x="276.741818" y="119.740235" style="stroke: #000000; stroke-width: 0.8"/>
      </g>
     </g>
    </g>
    <g id="xtick_7">
     <g id="line2d_7">
      <g>
       <use xlink:href="#mf3a84b3c87" x="317.323636" y="119.740235" style="stroke: #000000; stroke-width: 0.8"/>
      </g>
     </g>
    </g>
    <g id="xtick_8">
     <g id="line2d_8">
      <g>
       <use xlink:href="#mf3a84b3c87" x="357.905455" y="119.740235" style="stroke: #000000; stroke-width: 0.8"/>
      </g>
     </g>
    </g>
    <g id="xtick_9">
     <g id="line2d_9">
      <g>
       <use xlink:href="#mf3a84b3c87" x="398.487273" y="119.740235" style="stroke: #000000; stroke-width: 0.8"/>
      </g>
     </g>
    </g>
   </g>
   <g id="matplotlib.axis_2">
    <g id="ytick_1">
     <g id="line2d_10">
      <defs>
       <path id="mdb00252fa7" d="M 0 0 
L -3.5 0 
" style="stroke: #000000; stroke-width: 0.8"/>
      </defs>
      <g>
       <use xlink:href="#mdb00252fa7" x="57.6" y="116.182588" style="stroke: #000000; stroke-width: 0.8"/>
      </g>
     </g>
     <g id="text_1">
      <!-- 0 -->
      <g transform="translate(44.2375 119.981807) scale(0.1 -0.1)">
       <defs>
        <path id="DejaVuSans-30" d="M 2034 4250 
Q 1547 4250 1301 3770 
Q 1056 3291 1056 2328 
Q 1056 1369 1301 889 
Q 1547 409 2034 409 
Q 2525 409 2770 889 
Q 3016 1369 3016 2328 
Q 3016 3291 2770 3770 
Q 2525 4250 2034 4250 
z
M 2034 4750 
Q 2819 4750 3233 4129 
Q 3647 3509 3647 2328 
Q 3647 1150 3233 529 
Q 2819 -91 2034 -91 
Q 1250 -91 836 529 
Q 422 1150 422 2328 
Q 422 3509 836 4129 
Q 1250 4750 2034 4750 
z
" transform="scale(0.015625)"/>
       </defs>
       <use xlink:href="#DejaVuSans-30"/>
      </g>
     </g>
    </g>
    <g id="ytick_2">
     <g id="line2d_11">
      <g>
       <use xlink:href="#mdb00252fa7" x="57.6" y="87.721412" style="stroke: #000000; stroke-width: 0.8"/>
      </g>
     </g>
     <g id="text_2">
      <!-- 20 -->
      <g transform="translate(37.875 91.520631) scale(0.1 -0.1)">
       <defs>
        <path id="DejaVuSans-32" d="M 1228 531 
L 3431 531 
L 3431 0 
L 469 0 
L 469 531 
Q 828 903 1448 1529 
Q 2069 2156 2228 2338 
Q 2531 2678 2651 2914 
Q 2772 3150 2772 3378 
Q 2772 3750 2511 3984 
Q 2250 4219 1831 4219 
Q 1534 4219 1204 4116 
Q 875 4013 500 3803 
L 500 4441 
Q 881 4594 1212 4672 
Q 1544 4750 1819 4750 
Q 2544 4750 2975 4387 
Q 3406 4025 3406 3419 
Q 3406 3131 3298 2873 
Q 3191 2616 2906 2266 
Q 2828 2175 2409 1742 
Q 1991 1309 1228 531 
z
" transform="scale(0.015625)"/>
       </defs>
       <use xlink:href="#DejaVuSans-32"/>
       <use xlink:href="#DejaVuSans-30" x="63.623047"/>
      </g>
     </g>
    </g>
    <g id="ytick_3">
     <g id="line2d_12">
      <g>
       <use xlink:href="#mdb00252fa7" x="57.6" y="59.260235" style="stroke: #000000; stroke-width: 0.8"/>
      </g>
     </g>
     <g id="text_3">
      <!-- 40 -->
      <g transform="translate(37.875 63.059454) scale(0.1 -0.1)">
       <defs>
        <path id="DejaVuSans-34" d="M 2419 4116 
L 825 1625 
L 2419 1625 
L 2419 4116 
z
M 2253 4666 
L 3047 4666 
L 3047 1625 
L 3713 1625 
L 3713 1100 
L 3047 1100 
L 3047 0 
L 2419 0 
L 2419 1100 
L 313 1100 
L 313 1709 
L 2253 4666 
z
" transform="scale(0.015625)"/>
       </defs>
       <use xlink:href="#DejaVuSans-34"/>
       <use xlink:href="#DejaVuSans-30" x="63.623047"/>
      </g>
     </g>
    </g>
    <g id="text_4">
     <!-- Varying input rate (Hz) -->
     <g transform="translate(31.795312 137.52018) rotate(-90) scale(0.1 -0.1)">
      <defs>
       <path id="DejaVuSans-56" d="M 1831 0 
L 50 4666 
L 709 4666 
L 2188 738 
L 3669 4666 
L 4325 4666 
L 2547 0 
L 1831 0 
z
" transform="scale(0.015625)"/>
       <path id="DejaVuSans-61" d="M 2194 1759 
Q 1497 1759 1228 1600 
Q 959 1441 959 1056 
Q 959 750 1161 570 
Q 1363 391 1709 391 
Q 2188 391 2477 730 
Q 2766 1069 2766 1631 
L 2766 1759 
L 2194 1759 
z
M 3341 1997 
L 3341 0 
L 2766 0 
L 2766 531 
Q 2569 213 2275 61 
Q 1981 -91 1556 -91 
Q 1019 -91 701 211 
Q 384 513 384 1019 
Q 384 1609 779 1909 
Q 1175 2209 1959 2209 
L 2766 2209 
L 2766 2266 
Q 2766 2663 2505 2880 
Q 2244 3097 1772 3097 
Q 1472 3097 1187 3025 
Q 903 2953 641 2809 
L 641 3341 
Q 956 3463 1253 3523 
Q 1550 3584 1831 3584 
Q 2591 3584 2966 3190 
Q 3341 2797 3341 1997 
z
" transform="scale(0.015625)"/>
       <path id="DejaVuSans-72" d="M 2631 2963 
Q 2534 3019 2420 3045 
Q 2306 3072 2169 3072 
Q 1681 3072 1420 2755 
Q 1159 2438 1159 1844 
L 1159 0 
L 581 0 
L 581 3500 
L 1159 3500 
L 1159 2956 
Q 1341 3275 1631 3429 
Q 1922 3584 2338 3584 
Q 2397 3584 2469 3576 
Q 2541 3569 2628 3553 
L 2631 2963 
z
" transform="scale(0.015625)"/>
       <path id="DejaVuSans-79" d="M 2059 -325 
Q 1816 -950 1584 -1140 
Q 1353 -1331 966 -1331 
L 506 -1331 
L 506 -850 
L 844 -850 
Q 1081 -850 1212 -737 
Q 1344 -625 1503 -206 
L 1606 56 
L 191 3500 
L 800 3500 
L 1894 763 
L 2988 3500 
L 3597 3500 
L 2059 -325 
z
" transform="scale(0.015625)"/>
       <path id="DejaVuSans-69" d="M 603 3500 
L 1178 3500 
L 1178 0 
L 603 0 
L 603 3500 
z
M 603 4863 
L 1178 4863 
L 1178 4134 
L 603 4134 
L 603 4863 
z
" transform="scale(0.015625)"/>
       <path id="DejaVuSans-6e" d="M 3513 2113 
L 3513 0 
L 2938 0 
L 2938 2094 
Q 2938 2591 2744 2837 
Q 2550 3084 2163 3084 
Q 1697 3084 1428 2787 
Q 1159 2491 1159 1978 
L 1159 0 
L 581 0 
L 581 3500 
L 1159 3500 
L 1159 2956 
Q 1366 3272 1645 3428 
Q 1925 3584 2291 3584 
Q 2894 3584 3203 3211 
Q 3513 2838 3513 2113 
z
" transform="scale(0.015625)"/>
       <path id="DejaVuSans-67" d="M 2906 1791 
Q 2906 2416 2648 2759 
Q 2391 3103 1925 3103 
Q 1463 3103 1205 2759 
Q 947 2416 947 1791 
Q 947 1169 1205 825 
Q 1463 481 1925 481 
Q 2391 481 2648 825 
Q 2906 1169 2906 1791 
z
M 3481 434 
Q 3481 -459 3084 -895 
Q 2688 -1331 1869 -1331 
Q 1566 -1331 1297 -1286 
Q 1028 -1241 775 -1147 
L 775 -588 
Q 1028 -725 1275 -790 
Q 1522 -856 1778 -856 
Q 2344 -856 2625 -561 
Q 2906 -266 2906 331 
L 2906 616 
Q 2728 306 2450 153 
Q 2172 0 1784 0 
Q 1141 0 747 490 
Q 353 981 353 1791 
Q 353 2603 747 3093 
Q 1141 3584 1784 3584 
Q 2172 3584 2450 3431 
Q 2728 3278 2906 2969 
L 2906 3500 
L 3481 3500 
L 3481 434 
z
" transform="scale(0.015625)"/>
       <path id="DejaVuSans-20" transform="scale(0.015625)"/>
       <path id="DejaVuSans-70" d="M 1159 525 
L 1159 -1331 
L 581 -1331 
L 581 3500 
L 1159 3500 
L 1159 2969 
Q 1341 3281 1617 3432 
Q 1894 3584 2278 3584 
Q 2916 3584 3314 3078 
Q 3713 2572 3713 1747 
Q 3713 922 3314 415 
Q 2916 -91 2278 -91 
Q 1894 -91 1617 61 
Q 1341 213 1159 525 
z
M 3116 1747 
Q 3116 2381 2855 2742 
Q 2594 3103 2138 3103 
Q 1681 3103 1420 2742 
Q 1159 2381 1159 1747 
Q 1159 1113 1420 752 
Q 1681 391 2138 391 
Q 2594 391 2855 752 
Q 3116 1113 3116 1747 
z
" transform="scale(0.015625)"/>
       <path id="DejaVuSans-75" d="M 544 1381 
L 544 3500 
L 1119 3500 
L 1119 1403 
Q 1119 906 1312 657 
Q 1506 409 1894 409 
Q 2359 409 2629 706 
Q 2900 1003 2900 1516 
L 2900 3500 
L 3475 3500 
L 3475 0 
L 2900 0 
L 2900 538 
Q 2691 219 2414 64 
Q 2138 -91 1772 -91 
Q 1169 -91 856 284 
Q 544 659 544 1381 
z
M 1991 3584 
L 1991 3584 
z
" transform="scale(0.015625)"/>
       <path id="DejaVuSans-74" d="M 1172 4494 
L 1172 3500 
L 2356 3500 
L 2356 3053 
L 1172 3053 
L 1172 1153 
Q 1172 725 1289 603 
Q 1406 481 1766 481 
L 2356 481 
L 2356 0 
L 1766 0 
Q 1100 0 847 248 
Q 594 497 594 1153 
L 594 3053 
L 172 3053 
L 172 3500 
L 594 3500 
L 594 4494 
L 1172 4494 
z
" transform="scale(0.015625)"/>
       <path id="DejaVuSans-65" d="M 3597 1894 
L 3597 1613 
L 953 1613 
Q 991 1019 1311 708 
Q 1631 397 2203 397 
Q 2534 397 2845 478 
Q 3156 559 3463 722 
L 3463 178 
Q 3153 47 2828 -22 
Q 2503 -91 2169 -91 
Q 1331 -91 842 396 
Q 353 884 353 1716 
Q 353 2575 817 3079 
Q 1281 3584 2069 3584 
Q 2775 3584 3186 3129 
Q 3597 2675 3597 1894 
z
M 3022 2063 
Q 3016 2534 2758 2815 
Q 2500 3097 2075 3097 
Q 1594 3097 1305 2825 
Q 1016 2553 972 2059 
L 3022 2063 
z
" transform="scale(0.015625)"/>
       <path id="DejaVuSans-28" d="M 1984 4856 
Q 1566 4138 1362 3434 
Q 1159 2731 1159 2009 
Q 1159 1288 1364 580 
Q 1569 -128 1984 -844 
L 1484 -844 
Q 1016 -109 783 600 
Q 550 1309 550 2009 
Q 550 2706 781 3412 
Q 1013 4119 1484 4856 
L 1984 4856 
z
" transform="scale(0.015625)"/>
       <path id="DejaVuSans-48" d="M 628 4666 
L 1259 4666 
L 1259 2753 
L 3553 2753 
L 3553 4666 
L 4184 4666 
L 4184 0 
L 3553 0 
L 3553 2222 
L 1259 2222 
L 1259 0 
L 628 0 
L 628 4666 
z
" transform="scale(0.015625)"/>
       <path id="DejaVuSans-7a" d="M 353 3500 
L 3084 3500 
L 3084 2975 
L 922 459 
L 3084 459 
L 3084 0 
L 275 0 
L 275 525 
L 2438 3041 
L 353 3041 
L 353 3500 
z
" transform="scale(0.015625)"/>
       <path id="DejaVuSans-29" d="M 513 4856 
L 1013 4856 
Q 1481 4119 1714 3412 
Q 1947 2706 1947 2009 
Q 1947 1309 1714 600 
Q 1481 -109 1013 -844 
L 513 -844 
Q 928 -128 1133 580 
Q 1338 1288 1338 2009 
Q 1338 2731 1133 3434 
Q 928 4138 513 4856 
z
" transform="scale(0.015625)"/>
      </defs>
      <use xlink:href="#DejaVuSans-56"/>
      <use xlink:href="#DejaVuSans-61" x="60.658203"/>
      <use xlink:href="#DejaVuSans-72" x="121.9375"/>
      <use xlink:href="#DejaVuSans-79" x="163.050781"/>
      <use xlink:href="#DejaVuSans-69" x="222.230469"/>
      <use xlink:href="#DejaVuSans-6e" x="250.013672"/>
      <use xlink:href="#DejaVuSans-67" x="313.392578"/>
      <use xlink:href="#DejaVuSans-20" x="376.869141"/>
      <use xlink:href="#DejaVuSans-69" x="408.65625"/>
      <use xlink:href="#DejaVuSans-6e" x="436.439453"/>
      <use xlink:href="#DejaVuSans-70" x="499.818359"/>
      <use xlink:href="#DejaVuSans-75" x="563.294922"/>
      <use xlink:href="#DejaVuSans-74" x="626.673828"/>
      <use xlink:href="#DejaVuSans-20" x="665.882812"/>
      <use xlink:href="#DejaVuSans-72" x="697.669922"/>
      <use xlink:href="#DejaVuSans-61" x="738.783203"/>
      <use xlink:href="#DejaVuSans-74" x="800.0625"/>
      <use xlink:href="#DejaVuSans-65" x="839.271484"/>
      <use xlink:href="#DejaVuSans-20" x="900.794922"/>
      <use xlink:href="#DejaVuSans-28" x="932.582031"/>
      <use xlink:href="#DejaVuSans-48" x="971.595703"/>
      <use xlink:href="#DejaVuSans-7a" x="1046.791016"/>
      <use xlink:href="#DejaVuSans-29" x="1099.28125"/>
     </g>
    </g>
   </g>
   <g id="line2d_13">
    <path d="M 73.832727 116.182588 
L 73.832727 80.606118 
L 154.996364 80.606118 
L 154.996364 45.029647 
L 236.16 45.029647 
L 236.16 116.182588 
L 317.323636 116.182588 
L 317.323636 66.375529 
L 398.487273 66.375529 
L 398.487273 116.182588 
" clip-path="url(#p13eef41f24)" style="fill: none; stroke: #1f77b4; stroke-width: 1.5; stroke-linecap: square"/>
   </g>
   <g id="line2d_14">
    <path d="M 73.832727 116.182588 
L 73.832727 80.606118 
L 154.996364 80.606118 
L 154.996364 45.029647 
L 236.16 45.029647 
L 236.16 116.182588 
L 317.323636 116.182588 
L 317.323636 66.375529 
L 398.487273 66.375529 
L 398.487273 116.182588 
" clip-path="url(#p13eef41f24)" style="fill: none; stroke-dasharray: 5.55,2.4; stroke-dashoffset: 0; stroke: #ff7f0e; stroke-width: 1.5"/>
   </g>
   <g id="patch_3">
    <path d="M 57.6 119.740235 
L 57.6 41.472 
" style="fill: none; stroke: #000000; stroke-width: 0.8; stroke-linejoin: miter; stroke-linecap: square"/>
   </g>
   <g id="patch_4">
    <path d="M 414.72 119.740235 
L 414.72 41.472 
" style="fill: none; stroke: #000000; stroke-width: 0.8; stroke-linejoin: miter; stroke-linecap: square"/>
   </g>
   <g id="patch_5">
    <path d="M 57.6 119.740235 
L 414.72 119.740235 
" style="fill: none; stroke: #000000; stroke-width: 0.8; stroke-linejoin: miter; stroke-linecap: square"/>
   </g>
   <g id="patch_6">
    <path d="M 57.6 41.472 
L 414.72 41.472 
" style="fill: none; stroke: #000000; stroke-width: 0.8; stroke-linejoin: miter; stroke-linecap: square"/>
   </g>
  </g>
  <g id="axes_2">
   <g id="patch_7">
    <path d="M 57.6 213.662118 
L 414.72 213.662118 
L 414.72 135.393882 
L 57.6 135.393882 
z
" style="fill: #ffffff"/>
   </g>
   <g id="matplotlib.axis_3">
    <g id="xtick_10">
     <g id="line2d_15">
      <g>
       <use xlink:href="#mf3a84b3c87" x="73.832727" y="213.662118" style="stroke: #000000; stroke-width: 0.8"/>
      </g>
     </g>
    </g>
    <g id="xtick_11">
     <g id="line2d_16">
      <g>
       <use xlink:href="#mf3a84b3c87" x="114.414545" y="213.662118" style="stroke: #000000; stroke-width: 0.8"/>
      </g>
     </g>
    </g>
    <g id="xtick_12">
     <g id="line2d_17">
      <g>
       <use xlink:href="#mf3a84b3c87" x="154.996364" y="213.662118" style="stroke: #000000; stroke-width: 0.8"/>
      </g>
     </g>
    </g>
    <g id="xtick_13">
     <g id="line2d_18">
      <g>
       <use xlink:href="#mf3a84b3c87" x="195.578182" y="213.662118" style="stroke: #000000; stroke-width: 0.8"/>
      </g>
     </g>
    </g>
    <g id="xtick_14">
     <g id="line2d_19">
      <g>
       <use xlink:href="#mf3a84b3c87" x="236.16" y="213.662118" style="stroke: #000000; stroke-width: 0.8"/>
      </g>
     </g>
    </g>
    <g id="xtick_15">
     <g id="line2d_20">
      <g>
       <use xlink:href="#mf3a84b3c87" x="276.741818" y="213.662118" style="stroke: #000000; stroke-width: 0.8"/>
      </g>
     </g>
    </g>
    <g id="xtick_16">
     <g id="line2d_21">
      <g>
       <use xlink:href="#mf3a84b3c87" x="317.323636" y="213.662118" style="stroke: #000000; stroke-width: 0.8"/>
      </g>
     </g>
    </g>
    <g id="xtick_17">
     <g id="line2d_22">
      <g>
       <use xlink:href="#mf3a84b3c87" x="357.905455" y="213.662118" style="stroke: #000000; stroke-width: 0.8"/>
      </g>
     </g>
    </g>
    <g id="xtick_18">
     <g id="line2d_23">
      <g>
       <use xlink:href="#mf3a84b3c87" x="398.487273" y="213.662118" style="stroke: #000000; stroke-width: 0.8"/>
      </g>
     </g>
    </g>
   </g>
   <g id="matplotlib.axis_4">
    <g id="ytick_4">
     <g id="line2d_24">
      <g>
       <use xlink:href="#mdb00252fa7" x="57.6" y="210.104471" style="stroke: #000000; stroke-width: 0.8"/>
      </g>
     </g>
     <g id="text_5">
      <!-- −0.05 -->
      <g transform="translate(19.954687 213.903689) scale(0.1 -0.1)">
       <defs>
        <path id="DejaVuSans-2212" d="M 678 2272 
L 4684 2272 
L 4684 1741 
L 678 1741 
L 678 2272 
z
" transform="scale(0.015625)"/>
        <path id="DejaVuSans-2e" d="M 684 794 
L 1344 794 
L 1344 0 
L 684 0 
L 684 794 
z
" transform="scale(0.015625)"/>
        <path id="DejaVuSans-35" d="M 691 4666 
L 3169 4666 
L 3169 4134 
L 1269 4134 
L 1269 2991 
Q 1406 3038 1543 3061 
Q 1681 3084 1819 3084 
Q 2600 3084 3056 2656 
Q 3513 2228 3513 1497 
Q 3513 744 3044 326 
Q 2575 -91 1722 -91 
Q 1428 -91 1123 -41 
Q 819 9 494 109 
L 494 744 
Q 775 591 1075 516 
Q 1375 441 1709 441 
Q 2250 441 2565 725 
Q 2881 1009 2881 1497 
Q 2881 1984 2565 2268 
Q 2250 2553 1709 2553 
Q 1456 2553 1204 2497 
Q 953 2441 691 2322 
L 691 4666 
z
" transform="scale(0.015625)"/>
       </defs>
       <use xlink:href="#DejaVuSans-2212"/>
       <use xlink:href="#DejaVuSans-30" x="83.789062"/>
       <use xlink:href="#DejaVuSans-2e" x="147.412109"/>
       <use xlink:href="#DejaVuSans-30" x="179.199219"/>
       <use xlink:href="#DejaVuSans-35" x="242.822266"/>
      </g>
     </g>
    </g>
    <g id="ytick_5">
     <g id="line2d_25">
      <g>
       <use xlink:href="#mdb00252fa7" x="57.6" y="174.528" style="stroke: #000000; stroke-width: 0.8"/>
      </g>
     </g>
     <g id="text_6">
      <!-- 0.00 -->
      <g transform="translate(28.334375 178.327219) scale(0.1 -0.1)">
       <use xlink:href="#DejaVuSans-30"/>
       <use xlink:href="#DejaVuSans-2e" x="63.623047"/>
       <use xlink:href="#DejaVuSans-30" x="95.410156"/>
       <use xlink:href="#DejaVuSans-30" x="159.033203"/>
      </g>
     </g>
    </g>
    <g id="ytick_6">
     <g id="line2d_26">
      <g>
       <use xlink:href="#mdb00252fa7" x="57.6" y="138.951529" style="stroke: #000000; stroke-width: 0.8"/>
      </g>
     </g>
     <g id="text_7">
      <!-- 0.05 -->
      <g transform="translate(28.334375 142.750748) scale(0.1 -0.1)">
       <use xlink:href="#DejaVuSans-30"/>
       <use xlink:href="#DejaVuSans-2e" x="63.623047"/>
       <use xlink:href="#DejaVuSans-30" x="95.410156"/>
       <use xlink:href="#DejaVuSans-35" x="159.033203"/>
      </g>
     </g>
    </g>
    <g id="text_8">
     <!-- Synaptic weight (arb. units) -->
     <g transform="translate(13.875 243.867844) rotate(-90) scale(0.1 -0.1)">
      <defs>
       <path id="DejaVuSans-53" d="M 3425 4513 
L 3425 3897 
Q 3066 4069 2747 4153 
Q 2428 4238 2131 4238 
Q 1616 4238 1336 4038 
Q 1056 3838 1056 3469 
Q 1056 3159 1242 3001 
Q 1428 2844 1947 2747 
L 2328 2669 
Q 3034 2534 3370 2195 
Q 3706 1856 3706 1288 
Q 3706 609 3251 259 
Q 2797 -91 1919 -91 
Q 1588 -91 1214 -16 
Q 841 59 441 206 
L 441 856 
Q 825 641 1194 531 
Q 1563 422 1919 422 
Q 2459 422 2753 634 
Q 3047 847 3047 1241 
Q 3047 1584 2836 1778 
Q 2625 1972 2144 2069 
L 1759 2144 
Q 1053 2284 737 2584 
Q 422 2884 422 3419 
Q 422 4038 858 4394 
Q 1294 4750 2059 4750 
Q 2388 4750 2728 4690 
Q 3069 4631 3425 4513 
z
" transform="scale(0.015625)"/>
       <path id="DejaVuSans-63" d="M 3122 3366 
L 3122 2828 
Q 2878 2963 2633 3030 
Q 2388 3097 2138 3097 
Q 1578 3097 1268 2742 
Q 959 2388 959 1747 
Q 959 1106 1268 751 
Q 1578 397 2138 397 
Q 2388 397 2633 464 
Q 2878 531 3122 666 
L 3122 134 
Q 2881 22 2623 -34 
Q 2366 -91 2075 -91 
Q 1284 -91 818 406 
Q 353 903 353 1747 
Q 353 2603 823 3093 
Q 1294 3584 2113 3584 
Q 2378 3584 2631 3529 
Q 2884 3475 3122 3366 
z
" transform="scale(0.015625)"/>
       <path id="DejaVuSans-77" d="M 269 3500 
L 844 3500 
L 1563 769 
L 2278 3500 
L 2956 3500 
L 3675 769 
L 4391 3500 
L 4966 3500 
L 4050 0 
L 3372 0 
L 2619 2869 
L 1863 0 
L 1184 0 
L 269 3500 
z
" transform="scale(0.015625)"/>
       <path id="DejaVuSans-68" d="M 3513 2113 
L 3513 0 
L 2938 0 
L 2938 2094 
Q 2938 2591 2744 2837 
Q 2550 3084 2163 3084 
Q 1697 3084 1428 2787 
Q 1159 2491 1159 1978 
L 1159 0 
L 581 0 
L 581 4863 
L 1159 4863 
L 1159 2956 
Q 1366 3272 1645 3428 
Q 1925 3584 2291 3584 
Q 2894 3584 3203 3211 
Q 3513 2838 3513 2113 
z
" transform="scale(0.015625)"/>
       <path id="DejaVuSans-62" d="M 3116 1747 
Q 3116 2381 2855 2742 
Q 2594 3103 2138 3103 
Q 1681 3103 1420 2742 
Q 1159 2381 1159 1747 
Q 1159 1113 1420 752 
Q 1681 391 2138 391 
Q 2594 391 2855 752 
Q 3116 1113 3116 1747 
z
M 1159 2969 
Q 1341 3281 1617 3432 
Q 1894 3584 2278 3584 
Q 2916 3584 3314 3078 
Q 3713 2572 3713 1747 
Q 3713 922 3314 415 
Q 2916 -91 2278 -91 
Q 1894 -91 1617 61 
Q 1341 213 1159 525 
L 1159 0 
L 581 0 
L 581 4863 
L 1159 4863 
L 1159 2969 
z
" transform="scale(0.015625)"/>
       <path id="DejaVuSans-73" d="M 2834 3397 
L 2834 2853 
Q 2591 2978 2328 3040 
Q 2066 3103 1784 3103 
Q 1356 3103 1142 2972 
Q 928 2841 928 2578 
Q 928 2378 1081 2264 
Q 1234 2150 1697 2047 
L 1894 2003 
Q 2506 1872 2764 1633 
Q 3022 1394 3022 966 
Q 3022 478 2636 193 
Q 2250 -91 1575 -91 
Q 1294 -91 989 -36 
Q 684 19 347 128 
L 347 722 
Q 666 556 975 473 
Q 1284 391 1588 391 
Q 1994 391 2212 530 
Q 2431 669 2431 922 
Q 2431 1156 2273 1281 
Q 2116 1406 1581 1522 
L 1381 1569 
Q 847 1681 609 1914 
Q 372 2147 372 2553 
Q 372 3047 722 3315 
Q 1072 3584 1716 3584 
Q 2034 3584 2315 3537 
Q 2597 3491 2834 3397 
z
" transform="scale(0.015625)"/>
      </defs>
      <use xlink:href="#DejaVuSans-53"/>
      <use xlink:href="#DejaVuSans-79" x="63.476562"/>
      <use xlink:href="#DejaVuSans-6e" x="122.65625"/>
      <use xlink:href="#DejaVuSans-61" x="186.035156"/>
      <use xlink:href="#DejaVuSans-70" x="247.314453"/>
      <use xlink:href="#DejaVuSans-74" x="310.791016"/>
      <use xlink:href="#DejaVuSans-69" x="350"/>
      <use xlink:href="#DejaVuSans-63" x="377.783203"/>
      <use xlink:href="#DejaVuSans-20" x="432.763672"/>
      <use xlink:href="#DejaVuSans-77" x="464.550781"/>
      <use xlink:href="#DejaVuSans-65" x="546.337891"/>
      <use xlink:href="#DejaVuSans-69" x="607.861328"/>
      <use xlink:href="#DejaVuSans-67" x="635.644531"/>
      <use xlink:href="#DejaVuSans-68" x="699.121094"/>
      <use xlink:href="#DejaVuSans-74" x="762.5"/>
      <use xlink:href="#DejaVuSans-20" x="801.708984"/>
      <use xlink:href="#DejaVuSans-28" x="833.496094"/>
      <use xlink:href="#DejaVuSans-61" x="872.509766"/>
      <use xlink:href="#DejaVuSans-72" x="933.789062"/>
      <use xlink:href="#DejaVuSans-62" x="974.902344"/>
      <use xlink:href="#DejaVuSans-2e" x="1038.378906"/>
      <use xlink:href="#DejaVuSans-20" x="1070.166016"/>
      <use xlink:href="#DejaVuSans-75" x="1101.953125"/>
      <use xlink:href="#DejaVuSans-6e" x="1165.332031"/>
      <use xlink:href="#DejaVuSans-69" x="1228.710938"/>
      <use xlink:href="#DejaVuSans-74" x="1256.494141"/>
      <use xlink:href="#DejaVuSans-73" x="1295.703125"/>
      <use xlink:href="#DejaVuSans-29" x="1347.802734"/>
     </g>
    </g>
   </g>
   <g id="line2d_27">
    <path d="M 73.832727 174.528 
L 398.486461 174.528 
L 398.486461 174.528 
" clip-path="url(#p6c2e43dd89)" style="fill: none; stroke: #1f77b4; stroke-width: 1.5; stroke-linecap: square"/>
   </g>
   <g id="line2d_28">
    <path d="M 73.832727 174.528 
L 398.486461 174.528 
L 398.486461 174.528 
" clip-path="url(#p6c2e43dd89)" style="fill: none; stroke-dasharray: 5.55,2.4; stroke-dashoffset: 0; stroke: #ff7f0e; stroke-width: 1.5"/>
   </g>
   <g id="patch_8">
    <path d="M 57.6 213.662118 
L 57.6 135.393882 
" style="fill: none; stroke: #000000; stroke-width: 0.8; stroke-linejoin: miter; stroke-linecap: square"/>
   </g>
   <g id="patch_9">
    <path d="M 414.72 213.662118 
L 414.72 135.393882 
" style="fill: none; stroke: #000000; stroke-width: 0.8; stroke-linejoin: miter; stroke-linecap: square"/>
   </g>
   <g id="patch_10">
    <path d="M 57.6 213.662118 
L 414.72 213.662118 
" style="fill: none; stroke: #000000; stroke-width: 0.8; stroke-linejoin: miter; stroke-linecap: square"/>
   </g>
   <g id="patch_11">
    <path d="M 57.6 135.393882 
L 414.72 135.393882 
" style="fill: none; stroke: #000000; stroke-width: 0.8; stroke-linejoin: miter; stroke-linecap: square"/>
   </g>
  </g>
  <g id="axes_3">
   <g id="patch_12">
    <path d="M 57.6 307.584 
L 414.72 307.584 
L 414.72 229.315765 
L 57.6 229.315765 
z
" style="fill: #ffffff"/>
   </g>
   <g id="matplotlib.axis_5">
    <g id="xtick_19">
     <g id="line2d_29">
      <g>
       <use xlink:href="#mf3a84b3c87" x="73.832727" y="307.584" style="stroke: #000000; stroke-width: 0.8"/>
      </g>
     </g>
     <g id="text_9">
      <!-- 0 -->
      <g transform="translate(70.651477 322.182437) scale(0.1 -0.1)">
       <use xlink:href="#DejaVuSans-30"/>
      </g>
     </g>
    </g>
    <g id="xtick_20">
     <g id="line2d_30">
      <g>
       <use xlink:href="#mf3a84b3c87" x="114.414545" y="307.584" style="stroke: #000000; stroke-width: 0.8"/>
      </g>
     </g>
     <g id="text_10">
      <!-- 5000 -->
      <g transform="translate(101.689545 322.182437) scale(0.1 -0.1)">
       <use xlink:href="#DejaVuSans-35"/>
       <use xlink:href="#DejaVuSans-30" x="63.623047"/>
       <use xlink:href="#DejaVuSans-30" x="127.246094"/>
       <use xlink:href="#DejaVuSans-30" x="190.869141"/>
      </g>
     </g>
    </g>
    <g id="xtick_21">
     <g id="line2d_31">
      <g>
       <use xlink:href="#mf3a84b3c87" x="154.996364" y="307.584" style="stroke: #000000; stroke-width: 0.8"/>
      </g>
     </g>
     <g id="text_11">
      <!-- 10000 -->
      <g transform="translate(139.090114 322.182437) scale(0.1 -0.1)">
       <defs>
        <path id="DejaVuSans-31" d="M 794 531 
L 1825 531 
L 1825 4091 
L 703 3866 
L 703 4441 
L 1819 4666 
L 2450 4666 
L 2450 531 
L 3481 531 
L 3481 0 
L 794 0 
L 794 531 
z
" transform="scale(0.015625)"/>
       </defs>
       <use xlink:href="#DejaVuSans-31"/>
       <use xlink:href="#DejaVuSans-30" x="63.623047"/>
       <use xlink:href="#DejaVuSans-30" x="127.246094"/>
       <use xlink:href="#DejaVuSans-30" x="190.869141"/>
       <use xlink:href="#DejaVuSans-30" x="254.492188"/>
      </g>
     </g>
    </g>
    <g id="xtick_22">
     <g id="line2d_32">
      <g>
       <use xlink:href="#mf3a84b3c87" x="195.578182" y="307.584" style="stroke: #000000; stroke-width: 0.8"/>
      </g>
     </g>
     <g id="text_12">
      <!-- 15000 -->
      <g transform="translate(179.671932 322.182437) scale(0.1 -0.1)">
       <use xlink:href="#DejaVuSans-31"/>
       <use xlink:href="#DejaVuSans-35" x="63.623047"/>
       <use xlink:href="#DejaVuSans-30" x="127.246094"/>
       <use xlink:href="#DejaVuSans-30" x="190.869141"/>
       <use xlink:href="#DejaVuSans-30" x="254.492188"/>
      </g>
     </g>
    </g>
    <g id="xtick_23">
     <g id="line2d_33">
      <g>
       <use xlink:href="#mf3a84b3c87" x="236.16" y="307.584" style="stroke: #000000; stroke-width: 0.8"/>
      </g>
     </g>
     <g id="text_13">
      <!-- 20000 -->
      <g transform="translate(220.25375 322.182437) scale(0.1 -0.1)">
       <use xlink:href="#DejaVuSans-32"/>
       <use xlink:href="#DejaVuSans-30" x="63.623047"/>
       <use xlink:href="#DejaVuSans-30" x="127.246094"/>
       <use xlink:href="#DejaVuSans-30" x="190.869141"/>
       <use xlink:href="#DejaVuSans-30" x="254.492188"/>
      </g>
     </g>
    </g>
    <g id="xtick_24">
     <g id="line2d_34">
      <g>
       <use xlink:href="#mf3a84b3c87" x="276.741818" y="307.584" style="stroke: #000000; stroke-width: 0.8"/>
      </g>
     </g>
     <g id="text_14">
      <!-- 25000 -->
      <g transform="translate(260.835568 322.182437) scale(0.1 -0.1)">
       <use xlink:href="#DejaVuSans-32"/>
       <use xlink:href="#DejaVuSans-35" x="63.623047"/>
       <use xlink:href="#DejaVuSans-30" x="127.246094"/>
       <use xlink:href="#DejaVuSans-30" x="190.869141"/>
       <use xlink:href="#DejaVuSans-30" x="254.492188"/>
      </g>
     </g>
    </g>
    <g id="xtick_25">
     <g id="line2d_35">
      <g>
       <use xlink:href="#mf3a84b3c87" x="317.323636" y="307.584" style="stroke: #000000; stroke-width: 0.8"/>
      </g>
     </g>
     <g id="text_15">
      <!-- 30000 -->
      <g transform="translate(301.417386 322.182437) scale(0.1 -0.1)">
       <defs>
        <path id="DejaVuSans-33" d="M 2597 2516 
Q 3050 2419 3304 2112 
Q 3559 1806 3559 1356 
Q 3559 666 3084 287 
Q 2609 -91 1734 -91 
Q 1441 -91 1130 -33 
Q 819 25 488 141 
L 488 750 
Q 750 597 1062 519 
Q 1375 441 1716 441 
Q 2309 441 2620 675 
Q 2931 909 2931 1356 
Q 2931 1769 2642 2001 
Q 2353 2234 1838 2234 
L 1294 2234 
L 1294 2753 
L 1863 2753 
Q 2328 2753 2575 2939 
Q 2822 3125 2822 3475 
Q 2822 3834 2567 4026 
Q 2313 4219 1838 4219 
Q 1578 4219 1281 4162 
Q 984 4106 628 3988 
L 628 4550 
Q 988 4650 1302 4700 
Q 1616 4750 1894 4750 
Q 2613 4750 3031 4423 
Q 3450 4097 3450 3541 
Q 3450 3153 3228 2886 
Q 3006 2619 2597 2516 
z
" transform="scale(0.015625)"/>
       </defs>
       <use xlink:href="#DejaVuSans-33"/>
       <use xlink:href="#DejaVuSans-30" x="63.623047"/>
       <use xlink:href="#DejaVuSans-30" x="127.246094"/>
       <use xlink:href="#DejaVuSans-30" x="190.869141"/>
       <use xlink:href="#DejaVuSans-30" x="254.492188"/>
      </g>
     </g>
    </g>
    <g id="xtick_26">
     <g id="line2d_36">
      <g>
       <use xlink:href="#mf3a84b3c87" x="357.905455" y="307.584" style="stroke: #000000; stroke-width: 0.8"/>
      </g>
     </g>
     <g id="text_16">
      <!-- 35000 -->
      <g transform="translate(341.999205 322.182437) scale(0.1 -0.1)">
       <use xlink:href="#DejaVuSans-33"/>
       <use xlink:href="#DejaVuSans-35" x="63.623047"/>
       <use xlink:href="#DejaVuSans-30" x="127.246094"/>
       <use xlink:href="#DejaVuSans-30" x="190.869141"/>
       <use xlink:href="#DejaVuSans-30" x="254.492188"/>
      </g>
     </g>
    </g>
    <g id="xtick_27">
     <g id="line2d_37">
      <g>
       <use xlink:href="#mf3a84b3c87" x="398.487273" y="307.584" style="stroke: #000000; stroke-width: 0.8"/>
      </g>
     </g>
     <g id="text_17">
      <!-- 40000 -->
      <g transform="translate(382.581023 322.182437) scale(0.1 -0.1)">
       <use xlink:href="#DejaVuSans-34"/>
       <use xlink:href="#DejaVuSans-30" x="63.623047"/>
       <use xlink:href="#DejaVuSans-30" x="127.246094"/>
       <use xlink:href="#DejaVuSans-30" x="190.869141"/>
       <use xlink:href="#DejaVuSans-30" x="254.492188"/>
      </g>
     </g>
    </g>
    <g id="text_18">
     <!-- Time (ms) -->
     <g transform="translate(210.960781 335.860562) scale(0.1 -0.1)">
      <defs>
       <path id="DejaVuSans-54" d="M -19 4666 
L 3928 4666 
L 3928 4134 
L 2272 4134 
L 2272 0 
L 1638 0 
L 1638 4134 
L -19 4134 
L -19 4666 
z
" transform="scale(0.015625)"/>
       <path id="DejaVuSans-6d" d="M 3328 2828 
Q 3544 3216 3844 3400 
Q 4144 3584 4550 3584 
Q 5097 3584 5394 3201 
Q 5691 2819 5691 2113 
L 5691 0 
L 5113 0 
L 5113 2094 
Q 5113 2597 4934 2840 
Q 4756 3084 4391 3084 
Q 3944 3084 3684 2787 
Q 3425 2491 3425 1978 
L 3425 0 
L 2847 0 
L 2847 2094 
Q 2847 2600 2669 2842 
Q 2491 3084 2119 3084 
Q 1678 3084 1418 2786 
Q 1159 2488 1159 1978 
L 1159 0 
L 581 0 
L 581 3500 
L 1159 3500 
L 1159 2956 
Q 1356 3278 1631 3431 
Q 1906 3584 2284 3584 
Q 2666 3584 2933 3390 
Q 3200 3197 3328 2828 
z
" transform="scale(0.015625)"/>
      </defs>
      <use xlink:href="#DejaVuSans-54"/>
      <use xlink:href="#DejaVuSans-69" x="57.958984"/>
      <use xlink:href="#DejaVuSans-6d" x="85.742188"/>
      <use xlink:href="#DejaVuSans-65" x="183.154297"/>
      <use xlink:href="#DejaVuSans-20" x="244.677734"/>
      <use xlink:href="#DejaVuSans-28" x="276.464844"/>
      <use xlink:href="#DejaVuSans-6d" x="315.478516"/>
      <use xlink:href="#DejaVuSans-73" x="412.890625"/>
      <use xlink:href="#DejaVuSans-29" x="464.990234"/>
     </g>
    </g>
   </g>
   <g id="matplotlib.axis_6">
    <g id="ytick_7">
     <g id="line2d_38">
      <g>
       <use xlink:href="#mdb00252fa7" x="57.6" y="304.026353" style="stroke: #000000; stroke-width: 0.8"/>
      </g>
     </g>
     <g id="text_19">
      <!-- 0 -->
      <g transform="translate(44.2375 307.825572) scale(0.1 -0.1)">
       <use xlink:href="#DejaVuSans-30"/>
      </g>
     </g>
    </g>
    <g id="ytick_8">
     <g id="line2d_39">
      <g>
       <use xlink:href="#mdb00252fa7" x="57.6" y="286.238118" style="stroke: #000000; stroke-width: 0.8"/>
      </g>
     </g>
     <g id="text_20">
      <!-- 25 -->
      <g transform="translate(37.875 290.037336) scale(0.1 -0.1)">
       <use xlink:href="#DejaVuSans-32"/>
       <use xlink:href="#DejaVuSans-35" x="63.623047"/>
      </g>
     </g>
    </g>
    <g id="ytick_9">
     <g id="line2d_40">
      <g>
       <use xlink:href="#mdb00252fa7" x="57.6" y="268.449882" style="stroke: #000000; stroke-width: 0.8"/>
      </g>
     </g>
     <g id="text_21">
      <!-- 50 -->
      <g transform="translate(37.875 272.249101) scale(0.1 -0.1)">
       <use xlink:href="#DejaVuSans-35"/>
       <use xlink:href="#DejaVuSans-30" x="63.623047"/>
      </g>
     </g>
    </g>
    <g id="ytick_10">
     <g id="line2d_41">
      <g>
       <use xlink:href="#mdb00252fa7" x="57.6" y="250.661647" style="stroke: #000000; stroke-width: 0.8"/>
      </g>
     </g>
     <g id="text_22">
      <!-- 75 -->
      <g transform="translate(37.875 254.460866) scale(0.1 -0.1)">
       <defs>
        <path id="DejaVuSans-37" d="M 525 4666 
L 3525 4666 
L 3525 4397 
L 1831 0 
L 1172 0 
L 2766 4134 
L 525 4134 
L 525 4666 
z
" transform="scale(0.015625)"/>
       </defs>
       <use xlink:href="#DejaVuSans-37"/>
       <use xlink:href="#DejaVuSans-35" x="63.623047"/>
      </g>
     </g>
    </g>
    <g id="ytick_11">
     <g id="line2d_42">
      <g>
       <use xlink:href="#mdb00252fa7" x="57.6" y="232.873412" style="stroke: #000000; stroke-width: 0.8"/>
      </g>
     </g>
     <g id="text_23">
      <!-- 100 -->
      <g transform="translate(31.5125 236.672631) scale(0.1 -0.1)">
       <use xlink:href="#DejaVuSans-31"/>
       <use xlink:href="#DejaVuSans-30" x="63.623047"/>
       <use xlink:href="#DejaVuSans-30" x="127.246094"/>
      </g>
     </g>
    </g>
    <g id="text_24">
     <!-- Resulting rate (Hz) -->
     <g transform="translate(25.432812 315.250664) rotate(-90) scale(0.1 -0.1)">
      <defs>
       <path id="DejaVuSans-52" d="M 2841 2188 
Q 3044 2119 3236 1894 
Q 3428 1669 3622 1275 
L 4263 0 
L 3584 0 
L 2988 1197 
Q 2756 1666 2539 1819 
Q 2322 1972 1947 1972 
L 1259 1972 
L 1259 0 
L 628 0 
L 628 4666 
L 2053 4666 
Q 2853 4666 3247 4331 
Q 3641 3997 3641 3322 
Q 3641 2881 3436 2590 
Q 3231 2300 2841 2188 
z
M 1259 4147 
L 1259 2491 
L 2053 2491 
Q 2509 2491 2742 2702 
Q 2975 2913 2975 3322 
Q 2975 3731 2742 3939 
Q 2509 4147 2053 4147 
L 1259 4147 
z
" transform="scale(0.015625)"/>
       <path id="DejaVuSans-6c" d="M 603 4863 
L 1178 4863 
L 1178 0 
L 603 0 
L 603 4863 
z
" transform="scale(0.015625)"/>
      </defs>
      <use xlink:href="#DejaVuSans-52"/>
      <use xlink:href="#DejaVuSans-65" x="64.982422"/>
      <use xlink:href="#DejaVuSans-73" x="126.505859"/>
      <use xlink:href="#DejaVuSans-75" x="178.605469"/>
      <use xlink:href="#DejaVuSans-6c" x="241.984375"/>
      <use xlink:href="#DejaVuSans-74" x="269.767578"/>
      <use xlink:href="#DejaVuSans-69" x="308.976562"/>
      <use xlink:href="#DejaVuSans-6e" x="336.759766"/>
      <use xlink:href="#DejaVuSans-67" x="400.138672"/>
      <use xlink:href="#DejaVuSans-20" x="463.615234"/>
      <use xlink:href="#DejaVuSans-72" x="495.402344"/>
      <use xlink:href="#DejaVuSans-61" x="536.515625"/>
      <use xlink:href="#DejaVuSans-74" x="597.794922"/>
      <use xlink:href="#DejaVuSans-65" x="637.003906"/>
      <use xlink:href="#DejaVuSans-20" x="698.527344"/>
      <use xlink:href="#DejaVuSans-28" x="730.314453"/>
      <use xlink:href="#DejaVuSans-48" x="769.328125"/>
      <use xlink:href="#DejaVuSans-7a" x="844.523438"/>
      <use xlink:href="#DejaVuSans-29" x="897.013672"/>
     </g>
    </g>
   </g>
   <g id="line2d_43">
    <path d="M 73.832727 287.518871 
L 75.456 287.518871 
L 76.267636 286.522729 
L 77.079273 287.945788 
L 77.890909 286.949647 
L 78.702545 287.945788 
L 79.514182 289.368847 
L 80.325818 287.376565 
L 81.137455 287.518871 
L 81.949091 286.238118 
L 82.760727 283.534306 
L 83.572364 287.091953 
L 84.384 287.661176 
L 85.195636 284.957365 
L 86.007273 282.965082 
L 86.818909 286.522729 
L 87.630545 286.095812 
L 88.442182 286.949647 
L 89.253818 285.384282 
L 90.065455 287.091953 
L 90.877091 287.518871 
L 91.688727 288.088094 
L 92.500364 289.368847 
L 93.312 286.522729 
L 94.123636 286.949647 
L 94.935273 288.515012 
L 95.746909 287.661176 
L 96.558545 287.803482 
L 97.370182 288.088094 
L 98.181818 285.099671 
L 98.993455 287.661176 
L 99.805091 287.518871 
L 100.616727 288.657318 
L 101.428364 287.091953 
L 102.24 285.953506 
L 103.051636 288.515012 
L 103.863273 288.799624 
L 104.674909 286.665035 
L 105.486545 285.099671 
L 106.298182 286.949647 
L 107.109818 288.088094 
L 107.921455 287.661176 
L 108.733091 287.091953 
L 109.544727 286.949647 
L 110.356364 287.091953 
L 111.168 287.091953 
L 111.979636 289.795765 
L 112.791273 286.665035 
L 113.602909 288.088094 
L 114.414545 286.238118 
L 115.226182 288.372706 
L 116.037818 287.945788 
L 116.849455 287.803482 
L 117.661091 286.807341 
L 118.472727 287.091953 
L 119.284364 287.234259 
L 120.096 288.088094 
L 120.907636 289.226541 
L 121.719273 285.526588 
L 122.530909 286.095812 
L 124.154182 287.661176 
L 124.965818 290.364988 
L 125.777455 285.384282 
L 126.589091 285.668894 
L 128.212364 287.661176 
L 129.024 286.949647 
L 129.835636 284.957365 
L 130.647273 286.095812 
L 131.458909 288.657318 
L 132.270545 288.941929 
L 133.082182 286.380424 
L 133.893818 286.665035 
L 134.705455 285.526588 
L 135.517091 285.526588 
L 136.328727 286.949647 
L 137.140364 288.088094 
L 137.952 286.665035 
L 138.763636 287.376565 
L 139.575273 286.095812 
L 140.386909 285.384282 
L 141.198545 289.511153 
L 142.010182 284.672753 
L 142.821818 286.095812 
L 143.633455 288.2304 
L 145.256727 288.2304 
L 146.068364 286.522729 
L 146.88 285.384282 
L 147.691636 287.661176 
L 148.503273 285.953506 
L 149.314909 284.957365 
L 150.126545 287.518871 
L 150.938182 286.095812 
L 151.749818 288.2304 
L 152.561455 286.095812 
L 153.373091 287.945788 
L 154.184727 290.080376 
L 154.996364 272.292141 
L 155.808 272.292141 
L 156.619636 272.149835 
L 157.431273 272.861365 
L 158.242909 270.015247 
L 159.054545 273.999812 
L 159.866182 271.865224 
L 160.677818 272.434447 
L 161.489455 274.142118 
L 162.301091 273.288282 
L 163.112727 273.288282 
L 163.924364 274.711341 
L 164.736 276.561318 
L 165.547636 275.992094 
L 166.359273 271.580612 
L 167.170909 272.434447 
L 167.982545 272.719059 
L 168.794182 273.7152 
L 169.605818 272.861365 
L 170.417455 274.995953 
L 171.229091 271.296 
L 172.040727 272.149835 
L 172.852364 273.999812 
L 173.664 273.572894 
L 174.475636 271.438306 
L 175.287273 271.580612 
L 176.098909 275.707482 
L 176.910545 272.861365 
L 177.722182 270.726776 
L 178.533818 269.872941 
L 179.345455 269.872941 
L 180.157091 273.857506 
L 180.968727 271.153694 
L 181.780364 271.580612 
L 182.592 272.861365 
L 183.403636 271.011388 
L 184.215273 272.292141 
L 185.838545 270.442165 
L 186.650182 273.003671 
L 187.461818 268.734494 
L 188.273455 273.7152 
L 189.085091 268.449882 
L 189.896727 273.430588 
L 190.708364 274.569035 
L 191.52 270.869082 
L 193.143273 273.572894 
L 193.954909 275.138259 
L 194.766545 273.572894 
L 195.578182 270.869082 
L 196.389818 276.276706 
L 197.201455 273.857506 
L 198.013091 274.284424 
L 198.824727 272.576753 
L 199.636364 273.145976 
L 200.448 272.576753 
L 201.259636 271.438306 
L 202.071273 274.995953 
L 202.882909 274.569035 
L 203.694545 269.019106 
L 204.506182 273.857506 
L 205.317818 270.584471 
L 206.129455 270.442165 
L 206.941091 267.596047 
L 207.752727 272.861365 
L 208.564364 269.872941 
L 209.376 268.449882 
L 210.187636 271.011388 
L 210.999273 269.588329 
L 211.810909 271.865224 
L 213.434182 273.430588 
L 214.245818 273.999812 
L 215.057455 269.730635 
L 215.869091 272.007529 
L 216.680727 274.853647 
L 217.492364 270.157553 
L 218.304 273.999812 
L 219.115636 269.588329 
L 219.927273 271.438306 
L 220.738909 271.438306 
L 221.550545 275.707482 
L 222.362182 274.711341 
L 223.173818 271.722918 
L 223.985455 275.707482 
L 224.797091 271.580612 
L 225.608727 272.149835 
L 226.420364 274.142118 
L 227.232 274.284424 
L 228.043636 267.311435 
L 228.855273 272.861365 
L 229.666909 273.999812 
L 230.478545 268.734494 
L 231.290182 273.145976 
L 232.101818 268.165271 
L 232.913455 271.296 
L 233.725091 273.7152 
L 234.536727 270.584471 
L 235.348364 275.280565 
L 236.16 304.026353 
L 316.512 304.026353 
L 317.323636 281.684329 
L 318.135273 281.542024 
L 318.946909 278.838212 
L 319.758545 282.538165 
L 320.570182 281.257412 
L 321.381818 281.115106 
L 322.193455 278.5536 
L 323.005091 280.9728 
L 323.816727 281.257412 
L 324.628364 279.976659 
L 325.44 282.538165 
L 326.251636 280.545882 
L 327.063273 279.692047 
L 327.874909 282.822776 
L 328.686545 283.818918 
L 329.498182 284.245835 
L 330.309818 279.122824 
L 331.121455 280.688188 
L 331.933091 280.9728 
L 332.744727 283.818918 
L 333.556364 280.545882 
L 334.368 279.407435 
L 335.179636 282.253553 
L 335.991273 283.107388 
L 336.802909 281.542024 
L 337.614545 282.253553 
L 338.426182 284.530447 
L 339.237818 280.403576 
L 340.049455 280.688188 
L 340.861091 280.545882 
L 341.672727 279.692047 
L 342.484364 279.834353 
L 344.107636 279.549741 
L 344.919273 281.542024 
L 345.730909 282.253553 
L 346.542545 281.257412 
L 347.354182 282.822776 
L 348.165818 280.830494 
L 348.977455 281.826635 
L 349.789091 279.265129 
L 350.600727 277.557459 
L 351.412364 280.118965 
L 352.224 285.384282 
L 353.035636 284.957365 
L 353.847273 279.122824 
L 354.658909 281.968941 
L 355.470545 282.965082 
L 356.282182 282.680471 
L 357.093818 279.834353 
L 357.905455 283.249694 
L 359.528727 279.692047 
L 360.340364 281.115106 
L 361.152 279.265129 
L 361.963636 281.257412 
L 362.775273 282.111247 
L 363.586909 282.253553 
L 364.398545 281.826635 
L 365.210182 278.695906 
L 366.021818 278.838212 
L 366.833455 283.961224 
L 367.645091 279.976659 
L 368.456727 281.826635 
L 369.268364 280.9728 
L 370.08 277.130541 
L 370.891636 279.549741 
L 371.703273 278.980518 
L 372.514909 282.253553 
L 373.326545 281.257412 
L 374.138182 282.111247 
L 374.949818 282.395859 
L 375.761455 278.838212 
L 376.573091 278.411294 
L 377.384727 281.115106 
L 378.196364 280.118965 
L 379.008 280.830494 
L 379.819636 280.118965 
L 380.631273 277.984376 
L 381.442909 279.265129 
L 382.254545 278.695906 
L 383.066182 281.684329 
L 384.689455 283.818918 
L 385.501091 279.407435 
L 386.312727 282.538165 
L 387.124364 282.111247 
L 387.936 281.542024 
L 388.747636 281.826635 
L 389.559273 281.115106 
L 390.370909 280.688188 
L 391.182545 282.680471 
L 391.994182 281.257412 
L 392.805818 282.538165 
L 393.617455 278.838212 
L 394.429091 279.692047 
L 395.240727 279.692047 
L 396.052364 280.688188 
L 396.864 278.838212 
L 397.675636 283.249694 
L 397.675636 283.249694 
" clip-path="url(#p73240c715c)" style="fill: none; stroke: #1f77b4; stroke-width: 1.5; stroke-linecap: square"/>
   </g>
   <g id="line2d_44">
    <path d="M 73.832727 286.665035 
L 74.644364 286.380424 
L 75.456 285.099671 
L 77.079273 286.807341 
L 77.890909 284.388141 
L 78.702545 288.515012 
L 79.514182 289.653459 
L 80.325818 285.953506 
L 81.137455 283.534306 
L 81.949091 286.949647 
L 82.760727 285.099671 
L 83.572364 287.945788 
L 84.384 286.095812 
L 85.195636 285.668894 
L 86.007273 285.526588 
L 86.818909 288.088094 
L 87.630545 288.2304 
L 88.442182 289.368847 
L 89.253818 288.088094 
L 90.065455 287.661176 
L 90.877091 287.091953 
L 91.688727 289.368847 
L 92.500364 287.661176 
L 93.312 289.653459 
L 94.123636 290.364988 
L 94.935273 288.2304 
L 95.746909 286.949647 
L 96.558545 290.791906 
L 97.370182 287.661176 
L 98.181818 285.8112 
L 98.993455 285.526588 
L 99.805091 286.807341 
L 100.616727 285.953506 
L 101.428364 286.522729 
L 102.24 287.803482 
L 103.051636 288.2304 
L 103.863273 284.672753 
L 104.674909 284.957365 
L 105.486545 283.676612 
L 106.298182 287.518871 
L 107.109818 286.949647 
L 107.921455 287.945788 
L 108.733091 287.661176 
L 109.544727 286.665035 
L 110.356364 287.661176 
L 111.168 287.518871 
L 111.979636 288.372706 
L 112.791273 290.364988 
L 113.602909 290.791906 
L 114.414545 286.522729 
L 115.226182 286.665035 
L 116.037818 286.949647 
L 116.849455 286.522729 
L 117.661091 286.522729 
L 118.472727 287.945788 
L 119.284364 290.507294 
L 120.096 286.380424 
L 120.907636 287.945788 
L 122.530909 287.661176 
L 123.342545 288.088094 
L 124.154182 290.791906 
L 124.965818 285.668894 
L 125.777455 286.238118 
L 126.589091 284.815059 
L 127.400727 284.388141 
L 128.212364 287.091953 
L 129.024 286.238118 
L 129.835636 289.368847 
L 130.647273 288.372706 
L 131.458909 285.953506 
L 132.270545 287.945788 
L 133.082182 287.803482 
L 133.893818 289.084235 
L 134.705455 288.372706 
L 135.517091 284.815059 
L 136.328727 288.372706 
L 137.140364 287.234259 
L 137.952 287.803482 
L 138.763636 285.241976 
L 139.575273 288.088094 
L 140.386909 285.384282 
L 142.010182 288.372706 
L 142.821818 284.245835 
L 143.633455 287.661176 
L 144.445091 286.380424 
L 145.256727 286.522729 
L 146.068364 284.672753 
L 146.88 286.807341 
L 147.691636 288.088094 
L 148.503273 285.8112 
L 149.314909 287.803482 
L 150.126545 286.238118 
L 150.938182 288.515012 
L 151.749818 285.668894 
L 152.561455 286.238118 
L 153.373091 286.522729 
L 154.184727 286.665035 
L 154.996364 271.580612 
L 155.808 274.569035 
L 156.619636 271.580612 
L 157.431273 273.572894 
L 158.242909 274.426729 
L 159.054545 268.022965 
L 159.866182 273.857506 
L 160.677818 270.442165 
L 161.489455 271.153694 
L 162.301091 268.592188 
L 163.112727 274.426729 
L 163.924364 268.734494 
L 164.736 272.576753 
L 165.547636 269.588329 
L 166.359273 271.011388 
L 167.170909 272.149835 
L 167.982545 273.857506 
L 168.794182 273.857506 
L 170.417455 269.588329 
L 171.229091 273.857506 
L 172.040727 272.861365 
L 172.852364 267.026824 
L 173.664 275.280565 
L 174.475636 272.149835 
L 175.287273 274.426729 
L 176.098909 270.157553 
L 176.910545 273.288282 
L 177.722182 269.303718 
L 178.533818 273.145976 
L 179.345455 269.019106 
L 180.157091 274.284424 
L 180.968727 272.719059 
L 181.780364 273.430588 
L 182.592 268.734494 
L 183.403636 271.722918 
L 184.215273 273.430588 
L 185.026909 271.865224 
L 185.838545 271.722918 
L 186.650182 269.730635 
L 187.461818 271.722918 
L 188.273455 272.861365 
L 189.085091 272.861365 
L 189.896727 274.711341 
L 190.708364 273.145976 
L 191.52 272.861365 
L 192.331636 269.446024 
L 193.143273 274.142118 
L 193.954909 272.149835 
L 194.766545 272.007529 
L 195.578182 272.861365 
L 196.389818 272.292141 
L 197.201455 272.434447 
L 198.013091 272.149835 
L 198.824727 275.565176 
L 199.636364 270.299859 
L 200.448 272.007529 
L 202.071273 269.019106 
L 203.694545 273.288282 
L 204.506182 273.003671 
L 205.317818 274.711341 
L 206.129455 272.292141 
L 206.941091 272.149835 
L 207.752727 274.142118 
L 208.564364 271.438306 
L 209.376 270.726776 
L 210.187636 271.722918 
L 210.999273 271.580612 
L 211.810909 269.588329 
L 212.622545 273.7152 
L 213.434182 272.434447 
L 214.245818 273.145976 
L 215.057455 272.149835 
L 215.869091 270.442165 
L 216.680727 272.149835 
L 217.492364 272.861365 
L 218.304 269.446024 
L 219.115636 271.722918 
L 219.927273 272.434447 
L 220.738909 271.722918 
L 221.550545 273.003671 
L 222.362182 272.149835 
L 223.173818 272.007529 
L 223.985455 271.722918 
L 224.797091 274.853647 
L 225.608727 274.142118 
L 226.420364 271.580612 
L 227.232 271.722918 
L 228.043636 272.292141 
L 228.855273 269.588329 
L 229.666909 270.299859 
L 230.478545 272.576753 
L 231.290182 273.999812 
L 232.101818 269.446024 
L 232.913455 268.449882 
L 233.725091 273.999812 
L 234.536727 273.430588 
L 235.348364 267.026824 
L 236.16 304.026353 
L 316.512 304.026353 
L 317.323636 281.968941 
L 318.135273 282.965082 
L 318.946909 278.268988 
L 319.758545 282.253553 
L 320.570182 280.688188 
L 321.381818 280.545882 
L 322.193455 284.245835 
L 323.005091 280.118965 
L 323.816727 280.545882 
L 324.628364 279.834353 
L 325.44 279.549741 
L 326.251636 281.968941 
L 327.063273 280.403576 
L 327.874909 282.538165 
L 328.686545 281.968941 
L 329.498182 284.103529 
L 330.309818 282.111247 
L 331.121455 281.115106 
L 331.933091 280.830494 
L 332.744727 279.549741 
L 333.556364 281.115106 
L 334.368 280.261271 
L 335.179636 281.826635 
L 335.991273 281.968941 
L 336.802909 282.538165 
L 337.614545 278.838212 
L 338.426182 281.257412 
L 339.237818 281.826635 
L 340.049455 280.403576 
L 340.861091 281.257412 
L 341.672727 280.688188 
L 342.484364 278.5536 
L 343.296 279.976659 
L 344.107636 279.407435 
L 344.919273 280.403576 
L 345.730909 277.415153 
L 346.542545 277.984376 
L 347.354182 280.403576 
L 348.165818 281.684329 
L 348.977455 284.530447 
L 349.789091 280.118965 
L 350.600727 280.688188 
L 352.224 279.265129 
L 353.035636 282.111247 
L 353.847273 278.126682 
L 354.658909 279.549741 
L 355.470545 279.407435 
L 356.282182 279.834353 
L 357.093818 278.126682 
L 357.905455 280.830494 
L 358.717091 282.395859 
L 359.528727 281.826635 
L 360.340364 283.818918 
L 361.152 277.415153 
L 361.963636 280.688188 
L 362.775273 279.976659 
L 363.586909 281.826635 
L 364.398545 281.399718 
L 365.210182 278.838212 
L 366.021818 278.126682 
L 366.833455 282.822776 
L 367.645091 280.403576 
L 368.456727 282.680471 
L 369.268364 282.253553 
L 370.08 282.253553 
L 370.891636 280.830494 
L 371.703273 284.388141 
L 372.514909 279.407435 
L 373.326545 281.968941 
L 374.138182 282.965082 
L 374.949818 280.545882 
L 375.761455 281.968941 
L 376.573091 276.988235 
L 377.384727 282.680471 
L 378.196364 280.688188 
L 379.008 281.257412 
L 379.819636 282.965082 
L 380.631273 283.676612 
L 381.442909 280.403576 
L 382.254545 281.115106 
L 383.066182 281.115106 
L 383.877818 281.826635 
L 384.689455 280.403576 
L 385.501091 279.407435 
L 386.312727 283.107388 
L 387.124364 280.403576 
L 387.936 283.676612 
L 388.747636 278.126682 
L 389.559273 280.9728 
L 390.370909 279.122824 
L 391.182545 279.692047 
L 391.994182 281.542024 
L 392.805818 278.980518 
L 393.617455 280.261271 
L 394.429091 279.549741 
L 395.240727 282.253553 
L 396.052364 282.253553 
L 396.864 282.111247 
L 397.675636 280.688188 
L 397.675636 280.688188 
" clip-path="url(#p73240c715c)" style="fill: none; stroke-dasharray: 5.55,2.4; stroke-dashoffset: 0; stroke: #ff7f0e; stroke-width: 1.5"/>
   </g>
   <g id="patch_13">
    <path d="M 57.6 307.584 
L 57.6 229.315765 
" style="fill: none; stroke: #000000; stroke-width: 0.8; stroke-linejoin: miter; stroke-linecap: square"/>
   </g>
   <g id="patch_14">
    <path d="M 414.72 307.584 
L 414.72 229.315765 
" style="fill: none; stroke: #000000; stroke-width: 0.8; stroke-linejoin: miter; stroke-linecap: square"/>
   </g>
   <g id="patch_15">
    <path d="M 57.6 307.584 
L 414.72 307.584 
" style="fill: none; stroke: #000000; stroke-width: 0.8; stroke-linejoin: miter; stroke-linecap: square"/>
   </g>
   <g id="patch_16">
    <path d="M 57.6 229.315765 
L 414.72 229.315765 
" style="fill: none; stroke: #000000; stroke-width: 0.8; stroke-linejoin: miter; stroke-linecap: square"/>
   </g>
  </g>
  <g id="legend_1">
   <g id="patch_17">
    <path d="M 394.270313 340.6 
L 453.8 340.6 
Q 455.8 340.6 455.8 338.6 
L 455.8 310.24375 
Q 455.8 308.24375 453.8 308.24375 
L 394.270313 308.24375 
Q 392.270313 308.24375 392.270313 310.24375 
L 392.270313 338.6 
Q 392.270313 340.6 394.270313 340.6 
z
" style="fill: #ffffff; opacity: 0.8; stroke: #cccccc; stroke-linejoin: miter"/>
   </g>
   <g id="line2d_45">
    <path d="M 396.270313 316.342187 
L 406.270313 316.342187 
L 416.270313 316.342187 
" style="fill: none; stroke: #1f77b4; stroke-width: 1.5; stroke-linecap: square"/>
   </g>
   <g id="text_25">
    <!-- Arbor -->
    <g transform="translate(424.270313 319.842187) scale(0.1 -0.1)">
     <defs>
      <path id="DejaVuSans-41" d="M 2188 4044 
L 1331 1722 
L 3047 1722 
L 2188 4044 
z
M 1831 4666 
L 2547 4666 
L 4325 0 
L 3669 0 
L 3244 1197 
L 1141 1197 
L 716 0 
L 50 0 
L 1831 4666 
z
" transform="scale(0.015625)"/>
      <path id="DejaVuSans-6f" d="M 1959 3097 
Q 1497 3097 1228 2736 
Q 959 2375 959 1747 
Q 959 1119 1226 758 
Q 1494 397 1959 397 
Q 2419 397 2687 759 
Q 2956 1122 2956 1747 
Q 2956 2369 2687 2733 
Q 2419 3097 1959 3097 
z
M 1959 3584 
Q 2709 3584 3137 3096 
Q 3566 2609 3566 1747 
Q 3566 888 3137 398 
Q 2709 -91 1959 -91 
Q 1206 -91 779 398 
Q 353 888 353 1747 
Q 353 2609 779 3096 
Q 1206 3584 1959 3584 
z
" transform="scale(0.015625)"/>
     </defs>
     <use xlink:href="#DejaVuSans-41"/>
     <use xlink:href="#DejaVuSans-72" x="68.408203"/>
     <use xlink:href="#DejaVuSans-62" x="109.521484"/>
     <use xlink:href="#DejaVuSans-6f" x="172.998047"/>
     <use xlink:href="#DejaVuSans-72" x="234.179688"/>
    </g>
   </g>
   <g id="line2d_46">
    <path d="M 396.270313 331.020312 
L 406.270313 331.020312 
L 416.270313 331.020312 
" style="fill: none; stroke-dasharray: 5.55,2.4; stroke-dashoffset: 0; stroke: #ff7f0e; stroke-width: 1.5"/>
   </g>
   <g id="text_26">
    <!-- Brian -->
    <g transform="translate(424.270313 334.520312) scale(0.1 -0.1)">
     <defs>
      <path id="DejaVuSans-42" d="M 1259 2228 
L 1259 519 
L 2272 519 
Q 2781 519 3026 730 
Q 3272 941 3272 1375 
Q 3272 1813 3026 2020 
Q 2781 2228 2272 2228 
L 1259 2228 
z
M 1259 4147 
L 1259 2741 
L 2194 2741 
Q 2656 2741 2882 2914 
Q 3109 3088 3109 3444 
Q 3109 3797 2882 3972 
Q 2656 4147 2194 4147 
L 1259 4147 
z
M 628 4666 
L 2241 4666 
Q 2963 4666 3353 4366 
Q 3744 4066 3744 3513 
Q 3744 3084 3544 2831 
Q 3344 2578 2956 2516 
Q 3422 2416 3680 2098 
Q 3938 1781 3938 1306 
Q 3938 681 3513 340 
Q 3088 0 2303 0 
L 628 0 
L 628 4666 
z
" transform="scale(0.015625)"/>
     </defs>
     <use xlink:href="#DejaVuSans-42"/>
     <use xlink:href="#DejaVuSans-72" x="68.603516"/>
     <use xlink:href="#DejaVuSans-69" x="109.716797"/>
     <use xlink:href="#DejaVuSans-61" x="137.5"/>
     <use xlink:href="#DejaVuSans-6e" x="198.779297"/>
    </g>
   </g>
  </g>
 </g>
 <defs>
  <clipPath id="p13eef41f24">
   <rect x="57.6" y="41.472" width="357.12" height="78.268235"/>
  </clipPath>
  <clipPath id="p6c2e43dd89">
   <rect x="57.6" y="135.393882" width="357.12" height="78.268235"/>
  </clipPath>
  <clipPath id="p73240c715c">
   <rect x="57.6" y="229.315765" width="357.12" height="78.268235"/>
  </clipPath>
 </defs>
</svg>
